<svg xmlns="http://www.w3.org/2000/svg" width="100" height="100" viewBox="0 0 100 100" fill="none">
  <circle cx="50" cy="50" r="49.5" fill="#C1AB81" stroke="#222222"/>
  <path d="M25.6078 31.6031L24.2003 32.4286M19.9398 34.9276L10.5 40.4653L17.2909 50.8174L50.4987 31.8083L83.7091 50.8157L90.5 40.4636C90.5 40.4636 50.5705 17.0467 50.4987 17C50.4624 17.0242 40.1082 23.0976 29.6831 29.2124M78.6338 67.1762V47.9109M22.3663 47.9109V78.4645C22.3662 79.12 22.4952 79.769 22.7459 80.3746C22.9966 80.9802 23.3641 81.5304 23.8275 81.9939C24.2909 82.4573 24.841 82.8249 25.4465 83.0757C26.0519 83.3265 26.7008 83.4555 27.3561 83.4554H30.2282C31.5967 83.4554 32.9092 82.9116 33.877 81.9437C34.8447 80.9757 35.3884 79.6629 35.3884 78.2941V59.4735C35.3884 58.2605 35.8702 57.0971 36.7277 56.2394C37.5853 55.3816 38.7484 54.8997 39.9612 54.8997H61.0388C62.2516 54.8997 63.4148 55.3816 64.2723 56.2394C65.1299 57.0971 65.6117 58.2605 65.6117 59.4735V71.7336M84.018 74.1338C84.4616 73.597 84.7754 72.9651 84.935 72.2873C85.0947 71.6094 85.0958 70.9038 84.9384 70.2254C84.6855 69.1479 84.0454 68.2009 83.1399 67.5647C82.2343 66.9285 81.1266 66.6475 80.0274 66.7751C78.9282 66.9026 77.9142 67.4299 77.1784 68.2566C76.4426 69.0833 76.0362 70.1517 76.0367 71.2586C76.0367 71.4186 76.0471 71.7336 76.0471 71.7336H59.5051C59.5051 71.7336 59.5198 71.3382 59.5146 71.1357C59.4523 68.8055 57.5491 66.8612 55.2212 66.754C54.3469 66.7124 53.4794 66.9264 52.7247 67.3697C51.9699 67.813 51.3605 68.4665 50.9708 69.2504C50.5811 70.0344 50.4281 70.9148 50.5303 71.7843C50.6325 72.6538 50.9855 73.4747 51.5463 74.1468C51.8281 74.4962 51.9809 74.9321 51.9789 75.381C51.9768 75.8299 51.8201 76.2643 51.5351 76.6111C51.0914 77.1479 50.7775 77.7798 50.6178 78.4577C50.4582 79.1356 50.4571 79.8412 50.6146 80.5195C50.8675 81.5971 51.5076 82.544 52.4132 83.1802C53.3187 83.8164 54.4265 84.0975 55.5257 83.9699C56.6249 83.8423 57.6389 83.3151 58.3747 82.4884C59.1105 81.6617 59.5168 80.5933 59.5163 79.4864C59.5163 79.3263 59.5051 79.0114 59.5051 79.0114H76.0471C76.0471 79.0114 76.0333 79.4068 76.0385 79.6093C76.0999 81.9386 78.0013 83.882 80.3275 83.991C81.2021 84.0331 82.0699 83.8195 82.8251 83.3765C83.5803 82.9334 84.1902 82.28 84.5803 81.4961C84.9705 80.7121 85.124 79.8315 85.0221 78.9617C84.9203 78.092 84.5674 77.2707 84.0067 76.5982C83.7249 76.2488 83.5721 75.8129 83.5742 75.364C83.5762 74.9151 83.733 74.4806 84.018 74.1338Z" stroke="black" stroke-width="2" stroke-linecap="round" stroke-linejoin="round"/>
</svg>