<svg xmlns="http://www.w3.org/2000/svg" width="100" height="100" viewBox="0 0 100 100" fill="none">
  <circle cx="50" cy="50" r="49.5" fill="#C1AB81" stroke="#222222"/>
  <path d="M30.6722 58.6162L20.1535 77.7171C20.039 77.925 19.9868 78.1603 20.0029 78.396C20.019 78.6317 20.1027 78.8582 20.2445 79.0492C20.3863 79.2402 20.5802 79.388 20.804 79.4755C21.0278 79.5631 21.2723 79.5868 21.5093 79.5439L30.9105 77.8491C31.1967 77.7975 31.4922 77.8433 31.7483 77.9788C32.0043 78.1143 32.2055 78.3315 32.3185 78.5944L36.0323 87.2343C36.1259 87.4519 36.2803 87.6391 36.4777 87.7743C36.6751 87.9095 36.9075 87.9872 37.148 87.9985C37.3886 88.0099 37.6275 87.9543 37.8372 87.8382C38.0469 87.7221 38.2188 87.5503 38.3332 87.3426L45.6088 74.1301M73.7727 66.6875L79.8465 77.7171C79.961 77.925 80.0132 78.1604 79.9971 78.3961C79.981 78.6318 79.8973 78.8582 79.7555 79.0492C79.6137 79.2402 79.4197 79.388 79.1959 79.4756C78.9721 79.5631 78.7277 79.5868 78.4907 79.5439L69.0866 77.8491C68.8004 77.7975 68.5049 77.8433 68.2488 77.9788C67.9928 78.1143 67.7916 78.3315 67.6786 78.5944L63.9648 87.2344C63.8712 87.4519 63.7168 87.6391 63.5194 87.7743C63.322 87.9095 63.0896 87.9873 62.8491 87.9986C62.6085 88.0099 62.3696 87.9543 62.1599 87.8382C61.9502 87.7222 61.7782 87.5503 61.6639 87.3426L51.3834 68.6699M77.103 35.1565L75.6611 39.5087C75.3531 40.4364 75.3531 41.436 75.6611 42.3637L77.103 46.715C77.4104 47.6426 77.4104 48.6419 77.1031 49.5695C76.7957 50.4972 76.1967 51.3056 75.3919 51.879L71.6151 54.5688C70.81 55.1422 70.2106 55.9509 69.903 56.8788L68.461 61.2301C68.1538 62.1579 67.5547 62.9666 66.7497 63.54C65.9448 64.1134 64.9753 64.4222 63.9803 64.4221H59.3136C58.3185 64.4219 57.3489 64.7307 56.5439 65.3041L52.7672 67.9939C51.9623 68.5673 50.993 68.8762 49.9981 68.8762C49.0031 68.8762 48.0338 68.5673 47.2289 67.9939L43.4522 65.3041C42.6475 64.7308 41.6783 64.422 40.6835 64.4221H36.0158C35.0209 64.4221 34.0514 64.1132 33.2465 63.5398C32.4416 62.9664 31.8425 62.1578 31.5351 61.2301L30.0931 56.8788C29.7855 55.9511 29.1866 55.1426 28.382 54.5688L24.6052 51.879C23.8002 51.3058 23.201 50.4974 22.8935 49.5697C22.5859 48.642 22.5858 47.6427 22.8931 46.715L24.336 42.3637C24.643 41.4358 24.643 40.4366 24.336 39.5087L22.8931 35.1565C22.5856 34.2288 22.5857 33.2294 22.8932 32.3017C23.2008 31.374 23.8001 30.5656 24.6052 29.9925L28.382 27.3027C29.1865 26.7293 29.7855 25.9211 30.0931 24.9937L31.5351 20.6414C31.8436 19.7141 32.4435 18.9064 33.2489 18.3338C34.0543 17.7613 35.0239 17.4534 36.0188 17.4541H40.6913C41.6859 17.4537 42.655 17.145 43.4599 16.5721L47.2367 13.8823C48.0415 13.3089 49.0109 13 50.0058 13C51.0007 13 51.9701 13.3089 52.7749 13.8823L56.5517 16.5721C57.3569 17.1452 58.3263 17.4539 59.3213 17.4541H63.988C64.9829 17.4541 65.9522 17.7628 66.7571 18.336C67.5621 18.9093 68.1612 19.7176 68.4688 20.6452L69.9107 24.9975C70.2184 25.9251 70.8177 26.7334 71.6228 27.3065L75.3996 29.9963C76.2022 30.5704 76.7992 31.3786 77.1052 32.3054C77.4111 33.2322 77.4103 34.2301 77.103 35.1565ZM60.801 46.7302C60.801 50.9702 55.965 54.4074 49.9995 54.4074C44.034 54.4074 39.198 50.9702 39.198 46.7302C39.198 42.4902 44.034 39.053 49.9995 39.053C55.965 39.053 60.801 42.4902 60.801 46.7302ZM42.4215 33.4403C43.2394 35.7862 42.3081 38.2222 40.3414 38.8812C38.3748 39.5403 36.1175 38.1728 35.2997 35.8268C34.4818 33.4809 35.4131 31.0449 37.3798 30.3858C39.3464 29.7268 41.6037 31.0943 42.4215 33.4403ZM62.6248 30.3952C64.5914 31.0542 65.5227 33.4902 64.7049 35.8362C63.8871 38.1821 61.6298 39.5496 59.6631 38.8906C57.6965 38.2316 56.7652 35.7956 57.583 33.4496C58.4009 31.1037 60.6581 29.7362 62.6248 30.3952ZM53.7628 31.954C53.7628 34.4332 52.0779 36.443 49.9996 36.443C47.9212 36.443 46.2364 34.4332 46.2364 31.954C46.2364 29.4748 47.9212 27.465 49.9996 27.465C52.0779 27.465 53.7628 29.4748 53.7628 31.954Z" stroke="#222220" stroke-width="2" stroke-linecap="round" stroke-linejoin="round"/>
</svg>