<svg xmlns="http://www.w3.org/2000/svg" width="100" height="100" viewBox="0 0 100 100" fill="none">
  <circle cx="50" cy="50" r="49.5" fill="#C1AB81" stroke="#222222"/>
  <path d="M41.4446 42.2789L61.4223 22.3013C61.7187 22.0049 62.0705 21.7698 62.4578 21.6094C62.845 21.449 63.2601 21.3664 63.6792 21.3664C64.0984 21.3664 64.5134 21.449 64.9007 21.6094C65.2879 21.7698 65.6398 22.0049 65.9362 22.3013L76.2029 32.5638C76.8011 33.1626 77.1371 33.9744 77.1371 34.8208C77.1371 35.6671 76.8011 36.4789 76.2029 37.0777L37.3288 75.951C37.0324 76.2473 36.6805 76.4825 36.2933 76.6429C35.906 76.8033 35.491 76.8858 35.0718 76.8858C34.6527 76.8858 34.2376 76.8033 33.8504 76.6429C33.4631 76.4825 33.1113 76.2473 32.8149 75.951L22.5482 65.6893C22.2518 65.3929 22.0166 65.0411 21.8562 64.6538C21.6958 64.2666 21.6133 63.8515 21.6133 63.4324C21.6133 63.0132 21.6958 62.5982 21.8562 62.2109C22.0166 61.8237 22.2518 61.4718 22.5482 61.1754L31.1193 52.6042M34.5971 49.1266L37.664 46.0596M43.3286 69.9477L40.03 66.6491M50.0447 63.2308L46.7461 59.9322M63.4777 49.7987L60.1791 46.4992M70.1938 43.0818L66.8951 39.7831M56.7616 56.5148L53.4622 53.2161M23.037 75.463L16.5 82M84.5 27.4033L71.0967 14M21.186 69.6119L23.8263 66.9716L31.5277 74.6729L28.8874 77.3132C28.3569 77.8437 27.6375 78.1417 26.8873 78.1417C26.1372 78.1417 25.4177 77.8437 24.8873 77.3133L21.1854 73.6114C20.655 73.0809 20.357 72.3615 20.357 71.6114C20.357 70.8612 20.655 70.1418 21.1854 69.6113L21.186 69.6119ZM68.1796 24.5444L74.9106 17.8134L80.6869 23.5897L73.9559 30.3207L68.1796 24.5444Z" stroke="black" stroke-width="2" stroke-linecap="round" stroke-linejoin="round"/>
</svg>